<?xml version="1.0" encoding="utf-8"?>
<svg xmlns="http://www.w3.org/2000/svg" xmlns:xlink="http://www.w3.org/1999/xlink" version="1.1" x="0px" y="0px" viewBox="-30 0 160 90" enable-background="new 0 0 90 90" xml:space="preserve"><path fill="#000" d="M46.7,4.5c-13.6,0-26,6.6-33.6,17.8l-2.5-8.7c-0.4-1.4-1.8-2.1-3.2-1.8c-1.4,0.4-2.1,1.8-1.8,3.2L10,29.7  c0.3,1.1,1.3,1.9,2.5,1.9c0.2,0,0.5,0,0.7-0.1l14.6-4.2c1.4-0.4,2.1-1.8,1.8-3.2c-0.4-1.4-1.8-2.2-3.2-1.8L17.3,25  c6.7-9.8,17.5-15.6,29.5-15.6c19.7,0,35.7,16,35.7,35.7c0,19.7-16,35.7-35.7,35.7c-11.4,0-21.8-5.2-28.6-14.4  c-0.8-1.1-2.3-1.3-3.4-0.5c-1.1,0.8-1.3,2.3-0.5,3.4C22,79.6,33.8,85.5,46.7,85.5c22.3,0,40.5-18.2,40.5-40.5S69.1,4.5,46.7,4.5z"/></svg>
